<svg width="25" height="24" viewBox="0 0 25 24" fill="none" xmlns="http://www.w3.org/2000/svg">
<g id="shield-tick">
<path id="Icon" d="M9.66797 11.5023L11.668 13.5023L16.168 9.00231M20.668 12.0023C20.668 16.9108 15.314 20.4807 13.366 21.6172C13.1446 21.7463 13.0339 21.8109 12.8776 21.8444C12.7564 21.8704 12.5795 21.8704 12.4583 21.8444C12.3021 21.8109 12.1914 21.7463 11.97 21.6172C10.0219 20.4807 4.66797 16.9108 4.66797 12.0023V7.21991C4.66797 6.4204 4.66797 6.02065 4.79873 5.67702C4.91424 5.37345 5.10195 5.10259 5.34563 4.88784C5.62146 4.64475 5.99577 4.50439 6.74437 4.22366L12.1062 2.21299C12.3141 2.13503 12.418 2.09604 12.525 2.08059C12.6198 2.06689 12.7161 2.06689 12.811 2.08059C12.9179 2.09604 13.0219 2.13503 13.2298 2.21299L18.5916 4.22366C19.3402 4.50439 19.7145 4.64475 19.9903 4.88784C20.234 5.10259 20.4217 5.37345 20.5372 5.67702C20.668 6.02065 20.668 6.4204 20.668 7.21991V12.0023Z" stroke="#667085" stroke-width="2" stroke-linecap="round" stroke-linejoin="round"/>
</g>
</svg>
