<svg width="25" height="24" viewBox="0 0 25 24" fill="none" xmlns="http://www.w3.org/2000/svg">
<g id="file-06">
<path id="Icon" d="M14.332 2.26953V6.40007C14.332 6.96012 14.332 7.24015 14.441 7.45406C14.5369 7.64222 14.6899 7.7952 14.878 7.89108C15.092 8.00007 15.372 8.00007 15.932 8.00007H20.0626M16.332 13H8.33203M16.332 17H8.33203M10.332 9H8.33203M14.332 2H9.13203C7.45187 2 6.6118 2 5.97006 2.32698C5.40557 2.6146 4.94663 3.07354 4.65901 3.63803C4.33203 4.27976 4.33203 5.11984 4.33203 6.8V17.2C4.33203 18.8802 4.33203 19.7202 4.65901 20.362C4.94663 20.9265 5.40557 21.3854 5.97006 21.673C6.6118 22 7.45187 22 9.13203 22H15.532C17.2122 22 18.0523 22 18.694 21.673C19.2585 21.3854 19.7174 20.9265 20.0051 20.362C20.332 19.7202 20.332 18.8802 20.332 17.2V8L14.332 2Z" stroke="#667085" stroke-width="2" stroke-linecap="round" stroke-linejoin="round"/>
</g>
</svg>
